<mxfile host="app.diagrams.net" modified="2021-03-01T00:23:44.445Z" agent="5.0 (Macintosh; Intel Mac OS X 10_15_7) AppleWebKit/605.1.15 (KHTML, like Gecko) Version/14.0.3 Safari/605.1.15" etag="IgvAEyKMMisnDFWGq1eW" version="14.4.3" type="github">
  <diagram name="Page-1" id="38b20595-45e3-9b7f-d5ca-b57f44c5b66d">
    <mxGraphModel dx="3000" dy="1404" grid="1" gridSize="3.937" guides="1" tooltips="1" connect="1" arrows="1" fold="1" page="1" pageScale="1" pageWidth="1100" pageHeight="850" background="#ffffff" math="0" shadow="0">
      <root>
        <mxCell id="0" />
        <mxCell id="1" parent="0" />
        <mxCell id="YLdZDuK4rWRUF2MT4bSC-1" value="8X15 Shed" style="rounded=0;whiteSpace=wrap;html=1;imageWidth=24;resizeWidth=1;resizeHeight=1;movableLabel=1;" vertex="1" parent="1">
          <mxGeometry x="-1070.86" y="31.5" width="590.55" height="314.96" as="geometry">
            <mxPoint x="-8" as="offset" />
          </mxGeometry>
        </mxCell>
        <mxCell id="YLdZDuK4rWRUF2MT4bSC-5" value="7X17 Shead" style="rounded=0;whiteSpace=wrap;html=1;imageWidth=24;resizeWidth=1;resizeHeight=1;movableLabel=1;" vertex="1" parent="1">
          <mxGeometry x="-1070.86" y="370.08" width="669.29" height="275.59" as="geometry" />
        </mxCell>
        <mxCell id="YLdZDuK4rWRUF2MT4bSC-7" value="Solar Panel&lt;br&gt;68.5X41" style="rounded=0;whiteSpace=wrap;html=1;imageWidth=24;resizeWidth=1;resizeHeight=1;movableLabel=1;" vertex="1" parent="1">
          <mxGeometry x="-1059.0499999999997" y="-283.33" width="161.42" height="271.65" as="geometry" />
        </mxCell>
        <mxCell id="YLdZDuK4rWRUF2MT4bSC-9" value="Solar Panel&lt;br&gt;68.5X41" style="rounded=0;whiteSpace=wrap;html=1;imageWidth=24;resizeWidth=1;resizeHeight=1;movableLabel=1;" vertex="1" parent="1">
          <mxGeometry x="-877.9399999999998" y="-283.46" width="161.42" height="271.65" as="geometry" />
        </mxCell>
        <mxCell id="YLdZDuK4rWRUF2MT4bSC-11" value="Solar Panel&lt;br&gt;68.5X41" style="rounded=0;whiteSpace=wrap;html=1;imageWidth=24;resizeWidth=1;resizeHeight=1;movableLabel=1;" vertex="1" parent="1">
          <mxGeometry x="-696.8399999999999" y="-283.33" width="161.42" height="271.65" as="geometry" />
        </mxCell>
        <mxCell id="YLdZDuK4rWRUF2MT4bSC-13" value="Two Bikes" style="rounded=0;whiteSpace=wrap;html=1;" vertex="1" parent="1">
          <mxGeometry x="-389.76" y="-165.48" width="236.46" height="117.76" as="geometry" />
        </mxCell>
        <mxCell id="YLdZDuK4rWRUF2MT4bSC-14" value="8X15 Shed" style="rounded=0;whiteSpace=wrap;html=1;imageWidth=24;resizeWidth=1;resizeHeight=1;movableLabel=1;" vertex="1" parent="1">
          <mxGeometry x="-1070.863" y="759.837" width="590.55" height="314.96" as="geometry">
            <mxPoint x="-8" as="offset" />
          </mxGeometry>
        </mxCell>
        <mxCell id="YLdZDuK4rWRUF2MT4bSC-15" value="Front" style="rounded=0;whiteSpace=wrap;html=1;imageWidth=24;resizeWidth=1;resizeHeight=1;movableLabel=1;" vertex="1" parent="1">
          <mxGeometry x="-1070.87" y="1102.36" width="590.55" height="314.96" as="geometry">
            <mxPoint x="-8" as="offset" />
          </mxGeometry>
        </mxCell>
        <mxCell id="YLdZDuK4rWRUF2MT4bSC-16" value="" style="verticalLabelPosition=bottom;html=1;verticalAlign=top;align=center;shape=mxgraph.floorplan.doorRight;aspect=fixed;" vertex="1" parent="1">
          <mxGeometry x="-1196.85" y="834.64" width="125.98" height="133.85" as="geometry" />
        </mxCell>
        <mxCell id="YLdZDuK4rWRUF2MT4bSC-18" value="" style="verticalLabelPosition=bottom;html=1;verticalAlign=top;align=center;shape=mxgraph.floorplan.wallCorner;fillColor=#000000;" vertex="1" parent="1">
          <mxGeometry x="-1071" y="1314.96" width="590.69" height="102.04" as="geometry" />
        </mxCell>
        <mxCell id="YLdZDuK4rWRUF2MT4bSC-19" value="" style="verticalLabelPosition=bottom;html=1;verticalAlign=top;align=center;shape=mxgraph.floorplan.wall;fillColor=#000000;direction=south;" vertex="1" parent="1">
          <mxGeometry x="-490" y="1317" width="10" height="100" as="geometry" />
        </mxCell>
      </root>
    </mxGraphModel>
  </diagram>
</mxfile>
